PathFileType	4	(X/Y/Z)	 s01c0001.trc
DataRate	CameraRate	NumFrames	NumMarkers	Units	OrigDataRate	OrigDataStartFrame	OrigNumFrames
200	200	4	49	mm	200	1	2000
Frame#	Time	racr			lacr			c7			jug			rlel			rdr			llel			ldr			s2			lic			ric			lasi			rasi			rpsi			lpsi			rgt			lgt			rth1			rth2			rth3			rth4			rlfc			rmfc			rsh1			rsh2			rsh3			rsh4			rlmal			rmmal			rcal			rtoe			rmt5			rmt1			lth1			lth2			lth4			lth3			llfc			lmfc			lsh1			lsh2			lsh3			lsh4			llmal			lmmal			lcal			ltoe			lmt1			lmt5			
		X1	Y1	Z1	X2	Y2	Z2	X3	Y3	Z3	X4	Y4	Z4	X5	Y5	Z5	X6	Y6	Z6	X7	Y7	Z7	X8	Y8	Z8	X9	Y9	Z9	X10	Y10	Z10	X11	Y11	Z11	X12	Y12	Z12	X13	Y13	Z13	X14	Y14	Z14	X15	Y15	Z15	X16	Y16	Z16	X17	Y17	Z17	X18	Y18	Z18	X19	Y19	Z19	X20	Y20	Z20	X21	Y21	Z21	X22	Y22	Z22	X23	Y23	Z23	X24	Y24	Z24	X25	Y25	Z25	X26	Y26	Z26	X27	Y27	Z27	X28	Y28	Z28	X29	Y29	Z29	X30	Y30	Z30	X31	Y31	Z31	X32	Y32	Z32	X33	Y33	Z33	X34	Y34	Z34	X35	Y35	Z35	X36	Y36	Z36	X37	Y37	Z37	X38	Y38	Z38	X39	Y39	Z39	X40	Y40	Z40	X41	Y41	Z41	X42	Y42	Z42	X43	Y43	Z43	X44	Y44	Z44	X45	Y45	Z45	X46	Y46	Z46	X47	Y47	Z47	X48	Y48	Z48	X49	Y49	Z49	
1	0.0050	480.954821	1503.584139	-350.034226	300.101476	1482.751453	-694.248936	365.082363	1530.834446	-503.435346	500.256595	1461.867059	-564.972519	541.456424	1258.725111	-182.220245	701.511109	1066.029479	-66.053017	206.079367	1210.452104	-793.017003	216.287750	1005.309271	-962.985325	332.227825	1019.063454	-458.300305	360.237050	1088.783234	-676.187392	535.533671	1063.947084	-390.784062	413.241948	1026.487774	-677.945366	564.892220	1016.405497	-442.844969	374.436782	1050.159069	-420.629955	318.778549	1053.086659	-510.641775	508.271150	928.718534	-358.654312	330.847549	922.442146	-681.544943	531.130730	809.655897	-348.939453	537.891191	727.381663	-358.799098	532.696822	637.875863	-374.587178	575.792127	731.880934	-398.096458	503.793115	517.475065	-388.021739	444.076897	492.839487	-477.207872	489.799378	401.787885	-339.304869	484.790477	317.478368	-344.127025	469.386324	229.140296	-352.995648	509.656528	317.126826	-400.553954	447.088895	99.089060	-371.589578	447.773745	122.332710	-459.669379	393.700827	67.862614	-415.843772	651.928235	91.775594	-492.210359	581.368290	50.538172	-391.225748	561.271961	62.371414	-504.522813	316.624073	803.001513	-688.076644	337.138209	717.014670	-688.552216	387.014829	727.479105	-707.917025	353.859040	634.046484	-676.277478	362.485968	520.154091	-653.738961	390.398548	489.476358	-546.539806	304.667860	409.371832	-666.277083	303.258688	322.618409	-657.337874	304.248893	237.993676	-639.200439	365.758066	322.354504	-654.981453	317.258451	104.615504	-620.298821	382.457531	116.290075	-558.850763	304.794588	64.449000	-560.286232	543.374048	97.051109	-692.400744	498.309955	65.715648	-617.230535	426.085071	57.327841	-707.096165	
2	0.0100	481.023265	1503.594046	-350.047683	300.176285	1482.748151	-694.237223	365.160663	1530.825960	-503.361653	500.316416	1461.873463	-564.996957	541.542410	1258.761681	-182.212121	701.542658	1066.025354	-66.030500	206.119814	1210.476120	-793.051094	216.313836	1005.351516	-963.007802	332.224276	1019.074785	-458.312262	360.239078	1088.794297	-676.183977	535.527929	1063.933879	-390.773220	413.237054	1026.485463	-677.934975	564.894729	1016.399460	-442.837002	374.428640	1050.154752	-420.634283	318.782941	1053.094726	-510.647563	508.269772	928.720846	-358.633575	330.849762	922.444538	-681.523488	531.130140	809.656217	-348.938266	537.877427	727.376243	-358.791434	532.678844	637.890426	-374.569126	575.782255	731.904337	-398.102689	503.791647	517.466215	-388.008433	444.061626	492.836334	-477.206621	489.782737	401.779043	-339.279692	484.765952	317.459360	-344.136594	469.384655	229.155665	-352.984899	509.650233	317.129058	-400.555114	447.056124	99.094215	-371.589302	447.773497	122.332906	-459.662311	393.692933	67.876637	-415.834588	651.934811	91.765705	-492.219863	581.364941	50.538735	-391.236896	561.266702	62.374507	-504.519685	316.624848	803.001461	-688.075684	337.164223	717.031760	-688.525859	387.017781	727.487350	-707.914978	353.883511	634.043923	-676.272445	362.522122	520.139206	-653.731507	390.411701	489.462823	-546.549833	304.675087	409.378481	-666.293476	303.277212	322.611722	-657.338669	304.257725	238.001091	-639.193642	365.771321	322.353406	-654.986161	317.282291	104.605902	-620.293481	380.684321	115.521312	-557.064038	304.769489	64.461780	-560.272984	543.374337	97.051198	-692.404618	498.319849	65.725063	-617.223485	426.098173	57.337182	-707.110376	
3	0.0150	481.543218	1503.452023	-350.510099	300.228506	1482.779965	-694.271405	365.190172	1530.869906	-503.378816	500.345403	1461.894236	-564.983959	541.609717	1258.774811	-182.219092	701.579494	1066.028360	-66.014678	206.144705	1210.510906	-793.067441	216.326226	1005.392071	-963.023943	332.218513	1019.072809	-458.299984	360.228359	1088.806101	-676.171554	535.536755	1063.947551	-390.772431	413.232905	1026.486554	-677.944186	564.874276	1016.382706	-442.828399	374.423516	1050.155779	-420.627355	318.761298	1053.093730	-510.641241	508.241766	928.736845	-358.636663	330.850499	922.447227	-681.521232	531.118780	809.651730	-348.934592	537.891043	727.382880	-358.781492	532.685211	637.890907	-374.571946	575.772194	731.905425	-398.090339	503.783641	517.497961	-388.003484	444.086343	492.856890	-477.208295	489.770312	401.794255	-339.280421	484.775274	317.470309	-344.120421	469.396705	229.159039	-352.993119	509.651756	317.140130	-400.550041	447.103363	99.065424	-371.588992	447.779858	122.264081	-459.649316	393.692563	67.868778	-415.837728	651.938623	91.767021	-492.231459	581.379104	50.528274	-391.229842	561.277108	62.381941	-504.518848	316.612299	803.000683	-688.079203	337.177289	717.031859	-688.534386	387.013002	727.486170	-708.010158	353.895445	634.048278	-676.276937	362.543475	520.133714	-653.730862	390.472480	489.461125	-546.573668	304.693396	409.383131	-666.282256	303.291321	322.613661	-657.330715	304.435720	237.693638	-639.629415	366.336312	322.171443	-654.746674	317.261278	104.620707	-620.280143	380.684321	115.521312	-557.064038	304.764437	64.473972	-560.283905	543.393982	97.036890	-692.407304	498.306360	65.726058	-617.224425	426.095145	57.337298	-707.107141	
4	0.0200	482.045504	1503.317121	-350.955267	303.612312	1483.346346	-696.056069	365.244455	1530.873474	-503.349795	500.410570	1461.898079	-565.008108	541.668513	1258.804694	-182.207355	702.274144	1066.203327	-66.142063	206.168599	1210.549676	-793.077165	216.417310	1005.481263	-963.186893	332.206937	1019.079856	-458.290548	360.226591	1088.806734	-676.176004	535.550857	1063.911657	-390.812627	412.749975	1026.426212	-678.038607	564.884475	1016.403685	-442.819231	374.424002	1050.150638	-420.629447	318.765453	1053.094159	-510.629188	508.237315	928.731074	-358.627588	330.846154	922.448207	-681.513605	531.024592	809.521488	-348.811066	537.856545	727.385929	-358.775038	532.552975	637.945312	-374.491905	575.783060	731.907968	-398.088388	503.748470	517.497112	-387.990366	444.050788	492.845121	-477.202218	489.768865	401.794589	-339.269218	484.748019	317.468940	-344.114113	469.384282	229.157349	-352.975269	509.378738	317.136194	-400.290747	447.090343	99.098030	-371.586626	447.860389	122.195913	-459.698823	394.221531	67.481624	-415.799751	651.942557	91.766850	-492.242657	581.358798	50.546964	-391.219942	561.285178	62.388685	-504.517857	316.597507	802.999253	-688.081763	337.184075	717.039281	-688.533109	387.006861	727.486098	-708.102730	353.916652	634.050417	-676.271570	362.851061	520.300309	-653.437206	390.373746	489.572354	-546.438336	304.712239	409.386718	-666.288713	303.482864	322.626739	-657.271201	304.608000	237.396012	-640.051448	367.024385	321.874355	-654.405836	317.279722	104.616675	-620.290415	382.485693	116.291171	-558.851545	304.787687	64.452124	-560.268037	543.380156	97.050949	-692.409868	498.309502	65.707344	-617.223040	426.094197	57.343824	-707.114842	
